<?xml version="1.0" encoding="UTF-8" standalone="no"?>
<!DOCTYPE svg PUBLIC "-//W3C//DTD SVG 1.1//EN"
 "http://www.w3.org/Graphics/SVG/1.1/DTD/svg11.dtd">
<!-- Generated by graphviz version 2.40.1 (20161225.0304)
 -->
<!-- Title: main Pages: 1 -->
<svg width="112pt" height="66pt"
 viewBox="0.00 0.00 112.00 66.00" xmlns="http://www.w3.org/2000/svg" xmlns:xlink="http://www.w3.org/1999/xlink">
<g id="graph0" class="graph" transform="scale(1 1) rotate(0) translate(4 62)">
<title>main</title>
<!-- Node1 -->
<g id="node1" class="node">
<title>Node1</title>
<polygon fill="#bfbfbf" stroke="#000000" points="0,-19.5 0,-38.5 38,-38.5 38,-19.5 0,-19.5"/>
<text text-anchor="middle" x="19" y="-26.5" font-family="Helvetica,sans-Serif" font-size="10.00" fill="#000000">main</text>
</g>
<!-- Node2 -->
<g id="node2" class="node">
<title>Node2</title>
<g id="a_node2"><a xlink:href="main_8c.html#a2858154e2009b0e6e616f313177762bc" target="_top" xlink:title="Initialize ports, timers and ISRs. ">
<polygon fill="none" stroke="#000000" points="74.5,-38.5 74.5,-57.5 103.5,-57.5 103.5,-38.5 74.5,-38.5"/>
<text text-anchor="middle" x="89" y="-45.5" font-family="Helvetica,sans-Serif" font-size="10.00" fill="#000000">init</text>
</a>
</g>
</g>
<!-- Node1&#45;&gt;Node2 -->
<g id="edge1" class="edge">
<title>Node1&#45;&gt;Node2</title>
<path fill="none" stroke="#191970" d="M38.1278,-34.1918C46.1858,-36.379 55.6679,-38.9527 64.2487,-41.2818"/>
<polygon fill="#191970" stroke="#191970" points="63.5443,-44.7172 74.112,-43.959 65.378,-37.9616 63.5443,-44.7172"/>
</g>
<!-- Node3 -->
<g id="node3" class="node">
<title>Node3</title>
<g id="a_node3"><a xlink:href="main_8c.html#a05e0ffe612d44e6d7f3a9ae5b9df56a2" target="_top" xlink:title="The main code body. ">
<polygon fill="none" stroke="#000000" points="74,-.5 74,-19.5 104,-19.5 104,-.5 74,-.5"/>
<text text-anchor="middle" x="89" y="-7.5" font-family="Helvetica,sans-Serif" font-size="10.00" fill="#000000">run</text>
</a>
</g>
</g>
<!-- Node1&#45;&gt;Node3 -->
<g id="edge2" class="edge">
<title>Node1&#45;&gt;Node3</title>
<path fill="none" stroke="#191970" d="M38.1278,-23.8082C46.0707,-21.6522 55.3973,-19.1207 63.8804,-16.8182"/>
<polygon fill="#191970" stroke="#191970" points="64.9259,-20.1611 73.6598,-14.1638 63.0922,-13.4056 64.9259,-20.1611"/>
</g>
</g>
</svg>
