<?xml version="1.0" encoding="UTF-8" standalone="no"?>
<!DOCTYPE svg PUBLIC "-//W3C//DTD SVG 1.1//EN"
 "http://www.w3.org/Graphics/SVG/1.1/DTD/svg11.dtd">
<!-- Generated by graphviz version 2.40.1 (20161225.0304)
 -->
<!-- Title: main.c Pages: 1 -->
<svg width="295pt" height="84pt"
 viewBox="0.00 0.00 294.50 84.00" xmlns="http://www.w3.org/2000/svg" xmlns:xlink="http://www.w3.org/1999/xlink">
<g id="graph0" class="graph" transform="scale(1 1) rotate(0) translate(4 80)">
<title>main.c</title>
<!-- Node0 -->
<g id="node1" class="node">
<title>Node0</title>
<polygon fill="#bfbfbf" stroke="#000000" points="141,-56.5 141,-75.5 187,-75.5 187,-56.5 141,-56.5"/>
<text text-anchor="middle" x="164" y="-63.5" font-family="Helvetica,sans-Serif" font-size="10.00" fill="#000000">main.c</text>
</g>
<!-- Node1 -->
<g id="node2" class="node">
<title>Node1</title>
<polygon fill="none" stroke="#bfbfbf" points="0,-.5 0,-19.5 92,-19.5 92,-.5 0,-.5"/>
<text text-anchor="middle" x="46" y="-7.5" font-family="Helvetica,sans-Serif" font-size="10.00" fill="#000000">Infineon/XC878.h</text>
</g>
<!-- Node0&#45;&gt;Node1 -->
<g id="edge1" class="edge">
<title>Node0&#45;&gt;Node1</title>
<path fill="none" stroke="#191970" d="M143.7151,-56.3733C124.8579,-47.4241 96.554,-33.9917 75.2545,-23.8835"/>
<polygon fill="#191970" stroke="#191970" points="76.5551,-20.6266 66.0202,-19.5011 73.5539,-26.9506 76.5551,-20.6266"/>
</g>
<!-- Node2 -->
<g id="node3" class="node">
<title>Node2</title>
<polygon fill="none" stroke="#bfbfbf" points="110.5,-.5 110.5,-19.5 217.5,-19.5 217.5,-.5 110.5,-.5"/>
<text text-anchor="middle" x="164" y="-7.5" font-family="Helvetica,sans-Serif" font-size="10.00" fill="#000000">hsk_boot/hsk_boot.h</text>
</g>
<!-- Node0&#45;&gt;Node2 -->
<g id="edge2" class="edge">
<title>Node0&#45;&gt;Node2</title>
<path fill="none" stroke="#191970" d="M164,-56.2455C164,-48.9382 164,-38.6944 164,-29.7046"/>
<polygon fill="#191970" stroke="#191970" points="167.5001,-29.6426 164,-19.6427 160.5001,-29.6427 167.5001,-29.6426"/>
</g>
<!-- Node3 -->
<g id="node4" class="node">
<title>Node3</title>
<g id="a_node4"><a xlink:href="config_8h.html" target="_top" xlink:title="Configuration for the Infineon XC800 Starter Kit. ">
<polygon fill="none" stroke="#000000" points="235.5,-.5 235.5,-19.5 286.5,-19.5 286.5,-.5 235.5,-.5"/>
<text text-anchor="middle" x="261" y="-7.5" font-family="Helvetica,sans-Serif" font-size="10.00" fill="#000000">config.h</text>
</a>
</g>
</g>
<!-- Node0&#45;&gt;Node3 -->
<g id="edge3" class="edge">
<title>Node0&#45;&gt;Node3</title>
<path fill="none" stroke="#191970" d="M180.8961,-56.2455C195.918,-47.5731 218.1043,-34.7645 235.321,-24.825"/>
<polygon fill="#191970" stroke="#191970" points="237.3871,-27.6737 244.2975,-19.6427 233.8872,-21.6114 237.3871,-27.6737"/>
</g>
</g>
</svg>
